<?xml version="1.0" standalone="no"?>
<!DOCTYPE svg PUBLIC "-//W3C//DTD SVG 20010904//EN"
 "http://www.w3.org/TR/2001/REC-SVG-20010904/DTD/svg10.dtd">
<svg version="1.0" xmlns="http://www.w3.org/2000/svg"
 width="620.000000pt" height="600.000000pt" viewBox="0 0 620.000000 600.000000"
 preserveAspectRatio="xMidYMid meet">
<metadata>
Created by potrace 1.15, written by Peter Selinger 2001-2017
</metadata>
<g transform="translate(0.000000,600.000000) scale(0.100000,-0.100000)"
fill="#000000" stroke="none">
<path d="M0 3000 l0 -3000 3100 0 3100 0 0 3000 0 3000 -3100 0 -3100 0 0
-3000z m3220 983 c72 -40 66 -55 -51 -123 -53 -30 -232 -133 -397 -229 -166
-96 -302 -177 -302 -180 0 -4 29 -24 64 -45 57 -33 68 -36 88 -25 13 6 187
109 388 229 201 119 379 224 395 232 29 15 33 14 83 -14 31 -18 52 -37 52 -47
0 -12 -110 -82 -352 -226 -460 -273 -437 -259 -438 -267 0 -8 106 -68 120 -68
6 0 189 106 407 237 219 130 405 238 414 240 20 6 113 -49 117 -69 2 -10 -36
-38 -118 -87 -67 -39 -247 -146 -401 -238 l-280 -167 53 -33 c29 -18 58 -33
63 -33 6 0 28 11 50 23 22 13 189 111 370 217 433 254 413 243 430 236 13 -5
15 -74 13 -533 l-3 -528 -45 -28 c-87 -55 -805 -467 -814 -467 -4 0 -151 82
-325 182 -174 100 -377 216 -451 259 l-135 77 -3 66 c-2 53 0 67 13 72 15 6
112 -48 685 -378 113 -65 212 -117 220 -116 9 2 174 95 368 206 l352 204 0
384 0 383 -52 -30 c-29 -17 -59 -36 -65 -41 -10 -8 -13 -83 -13 -314 l0 -303
-82 -49 c-178 -105 -464 -271 -489 -282 -28 -13 -7 -24 -779 417 l-155 88 -3
66 c-2 52 0 68 12 72 9 4 159 -75 368 -194 194 -111 392 -223 439 -250 48 -27
90 -49 95 -49 6 0 106 56 224 125 118 69 218 126 223 127 4 2 6 105 5 230 l-3
226 -67 -39 -68 -40 0 -154 0 -154 -27 -19 c-42 -28 -278 -162 -286 -162 -5 0
-213 118 -463 262 l-455 261 3 66 c2 50 7 66 19 69 8 1 191 -98 405 -221 214
-123 412 -236 440 -252 l51 -28 87 48 86 49 0 73 c0 40 -2 73 -5 73 -3 0 -40
-20 -83 -45 -42 -25 -80 -45 -84 -45 -4 0 -193 107 -420 238 -227 131 -432
249 -455 262 -24 13 -43 31 -43 40 0 10 58 50 163 110 433 250 541 313 652
378 66 39 126 71 132 71 7 1 36 -11 63 -26z"/>
</g>
</svg>
